HIERARCHY
ROOT Hips
{
 OFFSET 0.000000 0.000000 0.000000
 CHANNELS 6 Xposition Yposition Zposition Yrotation Xrotation Zrotation
 JOINT Chest
 {
  OFFSET 0.000000 10.385163 0.011643
  CHANNELS 3 Yrotation Xrotation Zrotation
  JOINT Chest2
  {
   OFFSET 0.000000 11.579334 -0.021150
   CHANNELS 3 Yrotation Xrotation Zrotation
   JOINT Chest3
   {
    OFFSET 0.000000 10.463212 0.000000
    CHANNELS 3 Yrotation Xrotation Zrotation
    JOINT Chest4
    {
     OFFSET 0.000000 10.463212 0.000000
     CHANNELS 3 Yrotation Xrotation Zrotation
     JOINT Neck
     {
      OFFSET 0.000000 14.544862 0.000000
      CHANNELS 3 Yrotation Xrotation Zrotation
      JOINT Head
      {
       OFFSET 0.000000 9.730630 -0.050295
       CHANNELS 3 Yrotation Xrotation Zrotation
       End Site
       {
        OFFSET 0.000000 18.757589 -0.026270
       }
      }
     }
     JOINT RightCollar
     {
      OFFSET -2.985174 8.102313 0.000000
      CHANNELS 3 Yrotation Xrotation Zrotation
      JOINT RightShoulder
      {
       OFFSET -13.558590 0.000000 0.000000
       CHANNELS 3 Yrotation Xrotation Zrotation
       JOINT RightElbow
       {
        OFFSET -28.208579 0.000000 0.000000
        CHANNELS 3 Yrotation Xrotation Zrotation
        JOINT RightWrist
        {
         OFFSET -23.322907 0.000000 0.010349
         CHANNELS 3 Yrotation Xrotation Zrotation
         End Site
         {
          OFFSET -17.603338 0.000000 0.000000
         }
        }
       }
      }
     }
     JOINT LeftCollar
     {
      OFFSET 2.985174 8.102313 0.000000
      CHANNELS 3 Yrotation Xrotation Zrotation
      JOINT LeftShoulder
      {
       OFFSET 13.558590 0.000000 0.000000
       CHANNELS 3 Yrotation Xrotation Zrotation
       JOINT LeftElbow
       {
        OFFSET 28.208579 0.000000 0.000000
        CHANNELS 3 Yrotation Xrotation Zrotation
        JOINT LeftWrist
        {
         OFFSET 23.322907 0.000000 0.010349
         CHANNELS 3 Yrotation Xrotation Zrotation
         End Site
         {
          OFFSET 17.603338 0.000000 0.000000
         }
        }
       }
      }
     }
    }
   }
  }
 }
 JOINT RightHip
 {
  OFFSET -8.341224 -0.057053 -0.005822
  CHANNELS 3 Yrotation Xrotation Zrotation
  JOINT RightKnee
  {
   OFFSET 0.000000 -44.280013 0.005508
   CHANNELS 3 Yrotation Xrotation Zrotation
   JOINT RightAnkle
   {
    OFFSET 0.000000 -43.261728 0.009315
    CHANNELS 3 Yrotation Xrotation Zrotation
    JOINT RightToe
    {
     OFFSET 0.000000 -8.082955 18.257715
     CHANNELS 3 Yrotation Xrotation Zrotation
     End Site
     {
      OFFSET 0.000000 -1.634678 7.189621
     }
    }
   }
  }
 }
 JOINT LeftHip
 {
  OFFSET 8.341224 -0.057053 -0.005822
  CHANNELS 3 Yrotation Xrotation Zrotation
  JOINT LeftKnee
  {
   OFFSET 0.000000 -44.280013 0.005508
   CHANNELS 3 Yrotation Xrotation Zrotation
   JOINT LeftAnkle
   {
    OFFSET 0.000000 -43.261728 0.009315
    CHANNELS 3 Yrotation Xrotation Zrotation
    JOINT LeftToe
    {
     OFFSET 0.000000 -8.082955 18.257715
     CHANNELS 3 Yrotation Xrotation Zrotation
     End Site
     {
      OFFSET 0.000000 -1.634678 7.189621
     }
    }
   }
  }
 }
}
MOTION
Frames: 6
Frame Time: 0.016667
-345.991624 89.456576 -550.724735 -57.600831 -18.569480 -6.380986 -1.184856 9.839591 1.149878 -0.549594 4.370996 0.534258 -0.550055 4.371370 0.534178 -0.416527 3.278251 0.404322 3.041969 11.886687 -1.649704 6.528169 -13.946100 -4.462704 -3.306107 -5.340248 7.196569 4.396737 -11.940382 61.498877 91.149122 -24.799097 45.261590 -6.123545 2.759289 14.906210 -1.622615 -7.576938 -12.317211 6.651275 0.665607 -59.977580 -45.882329 -13.814379 -30.883964 0.098750 -7.854888 -12.747549 -17.910927 -20.303285 -7.228071 -22.032162 73.608425 -23.544024 -8.050325 -5.664227 5.513100 0.000000 0.000000 0.000000 1.731830 -13.960315 -7.484273 -1.570462 38.371715 -0.567024 6.199305 -5.158195 9.224318 -0.006965 -0.056455 -0.668967
-344.490266 89.870572 -549.080683 -60.189136 -18.401718 -6.203363 -1.197054 9.180226 1.094946 -0.551989 4.077273 0.508784 -0.551989 4.077273 0.508784 -0.417217 3.057501 0.385115 2.135596 11.975481 -1.251729 4.621204 -13.859088 -3.308989 -3.912551 -6.021527 7.160938 4.200472 -11.007874 60.726133 92.305316 -24.656689 46.163246 -6.091746 2.519578 15.881943 -1.687251 -6.474223 -11.983871 10.920552 1.494877 -59.708688 -48.079581 -12.727070 -31.564210 0.220625 -7.640051 -13.646366 -16.739992 -19.096022 -6.639494 -24.988791 75.448104 -23.768551 -7.520938 -6.002766 7.176639 0.000000 0.000000 0.000000 1.795822 -13.495851 -7.280402 2.369928 35.775538 0.105048 4.958311 -3.154287 8.955116 0.000000 0.000000 0.000000
-342.720150 90.416312 -547.328039 -62.827548 -18.092237 -5.947265 -0.734192 8.478487 1.343746 -0.349889 3.765399 0.609019 -0.349757 3.765071 0.609102 -0.265865 2.823286 0.458895 1.096591 12.112121 -1.107052 2.568330 -13.653817 -2.582539 -4.356500 -6.172990 6.892185 3.165492 -10.059410 59.433971 92.563284 -25.663717 47.537014 -5.495337 1.521314 16.531575 -1.330742 -6.527505 -11.810219 13.988092 3.332053 -59.334071 -48.467745 -15.032112 -33.548255 0.757142 -7.784550 -14.613605 -15.940960 -17.796137 -5.791372 -30.641809 75.794742 -27.001545 -6.736502 -6.072367 9.892592 0.216848 0.680463 0.619338 2.957815 -12.647812 -7.842759 4.192798 32.048629 0.405196 5.128600 -0.146833 8.131961 0.055200 -0.381025 3.227593
-340.762987 91.080343 -545.540249 -65.648034 -17.547914 -5.585079 0.052924 7.681302 1.748585 -0.005325 3.413779 0.774579 -0.005188 3.413646 0.774670 -0.008129 2.560173 0.580928 0.043478 12.281565 -1.120617 0.558092 -13.367469 -2.157391 -4.689536 -6.015855 6.496020 1.697172 -9.013423 57.879360 92.206312 -27.100863 49.203972 -4.468081 -0.082165 16.947058 -0.623299 -7.125036 -11.622077 16.639170 5.746860 -58.834001 -48.043279 -19.002504 -36.577252 1.666597 -8.086087 -15.734770 -15.362064 -16.473665 -4.807882 -35.434946 74.970465 -29.621750 -5.603776 -5.718668 13.204186 0.391232 1.398146 1.210382 4.731509 -11.746345 -8.760202 5.029041 27.576758 0.575207 5.789779 3.685607 6.851247 0.151045 -1.081425 7.914896
-338.706885 91.684903 -543.781685 -68.708244 -16.678720 -5.033728 0.893432 6.790200 2.097943 0.365612 3.021869 0.917637 0.365612 3.021869 0.917637 0.269605 2.266958 0.686259 -0.776485 12.484173 -1.174270 -0.986299 -13.002656 -1.911679 -4.837499 -5.800884 6.216903 0.597914 -7.685328 56.417942 91.466663 -28.167415 50.513390 -3.223380 -1.801611 16.814652 0.576374 -7.527160 -11.241079 18.585429 7.899999 -58.508831 -47.885888 -21.999896 -39.278763 2.673607 -8.326618 -16.781788 -15.267727 -15.626075 -3.844967 -35.183463 73.906460 -28.275611 -4.091471 -4.818600 15.889716 0.000000 0.000000 0.000000 6.674385 -11.494382 -9.603662 5.486099 23.583517 0.639858 5.782363 8.076364 4.982320 0.237101 -2.034432 12.420938
-336.588949 92.228305 -542.058731 -72.263157 -15.202387 -4.205272 1.861935 5.600236 2.344880 0.797389 2.497696 1.017907 0.797098 2.497442 1.017754 0.593461 1.874315 0.759896 -1.292120 12.850421 -1.242339 -1.941145 -12.325211 -1.826423 -4.642644 -5.551410 6.205024 0.166607 -5.520802 55.050113 90.561133 -28.672909 50.957187 -1.592758 -3.758623 15.846313 2.967305 -7.763393 -10.487268 19.521637 9.984639 -58.560420 -49.038056 -22.721149 -40.935031 3.824821 -8.293422 -17.947223 -16.036212 -15.624939 -2.859059 -27.629293 72.950922 -21.466832 -1.964169 -2.783560 17.921581 -1.071535 -5.448887 -4.908555 9.173420 -12.135883 -10.285297 6.191084 19.989329 0.649294 4.230714 13.839197 2.010165 0.275833 -3.674077 17.396910
